<?xml version="1.0" standalone="no"?>
<!DOCTYPE svg PUBLIC "-//W3C//DTD SVG 20010904//EN"
 "http://www.w3.org/TR/2001/REC-SVG-20010904/DTD/svg10.dtd">
<svg version="1.0" xmlns="http://www.w3.org/2000/svg"
 width="728.000000pt" height="508.000000pt" viewBox="0 0 728.000000 508.000000"
 preserveAspectRatio="xMidYMid meet">
<metadata>
Created by potrace 1.16, written by Peter Selinger 2001-2019
</metadata>
<g transform="translate(0.000000,508.000000) scale(0.100000,-0.100000)"
fill="#000000" stroke="none">
<path d="M3460 4694 c-152 -19 -268 -39 -365 -65 -605 -156 -1122 -578 -1391
-1134 -163 -336 -233 -659 -221 -1015 12 -330 80 -601 223 -890 105 -213 213
-367 364 -523 170 -176 257 -247 475 -384 111 -70 337 -169 489 -213 401 -116
812 -115 1215 1 737 214 1319 828 1495 1579 53 229 71 497 45 700 -6 47 -12
101 -15 120 -24 192 -116 473 -219 668 -213 402 -544 731 -927 920 -341 168
-591 231 -943 237 -104 2 -206 1 -225 -1z m447 -100 c173 -26 480 -112 548
-154 18 -11 40 -20 50 -20 10 0 26 -10 36 -22 11 -11 19 -18 19 -14 0 10 106
-49 218 -122 59 -39 100 -72 97 -79 -2 -7 1 -15 7 -19 7 -4 8 -3 4 4 -12 20
10 13 30 -9 18 -20 18 -20 -6 -15 -14 4 -43 0 -65 -8 l-40 -15 50 3 c28 2 61
6 75 10 25 7 46 -7 143 -99 29 -28 35 -45 14 -45 -7 0 -22 -7 -33 -15 -16 -13
-12 -13 24 1 l43 17 22 -28 c12 -15 34 -41 50 -57 32 -36 33 -39 7 -61 -28
-24 -25 -38 8 -32 22 4 23 4 7 -4 -11 -5 -29 -12 -40 -16 l-20 -7 20 -8 c11
-4 37 -1 59 6 37 14 61 11 51 -6 -3 -4 -14 -6 -25 -3 -12 3 -22 -1 -26 -11 -3
-9 -13 -16 -21 -16 -8 0 -12 -4 -9 -9 5 -7 -3 -8 -50 -2 -7 0 -11 15 -9 34 1
17 -2 35 -8 38 -5 4 -1 10 11 13 11 4 22 18 25 32 l4 25 -21 -20 c-12 -12 -30
-21 -39 -21 -22 0 -87 -31 -87 -42 0 -4 7 -8 15 -8 8 0 15 -5 15 -11 0 -6 -8
-8 -19 -4 -15 5 -24 -6 -50 -59 -17 -36 -34 -87 -37 -113 -4 -26 -12 -52 -18
-58 -6 -5 -12 -22 -12 -37 -2 -27 6 -32 44 -31 10 1 10 -2 1 -13 -8 -10 -8
-14 0 -14 6 0 11 -5 11 -11 0 -7 -9 -9 -22 -6 -29 8 -63 -10 -49 -27 8 -9 5
-18 -8 -32 -10 -11 -23 -30 -30 -41 -10 -20 -9 -21 24 -20 20 1 35 7 35 15 0
6 6 12 14 12 8 0 17 6 20 13 3 6 3 0 0 -14 -3 -15 -1 -30 5 -33 13 -9 15 -63
2 -71 -5 -3 -12 3 -15 12 -2 10 -4 2 -3 -17 1 -19 7 -38 12 -42 6 -5 4 -12 -5
-18 -13 -8 -13 -11 -1 -22 12 -11 13 -10 6 2 -7 13 -6 13 6 1 11 -11 11 -14 1
-18 -9 -4 -6 -11 9 -24 l22 -19 -21 0 c-12 0 -22 -5 -22 -11 0 -5 5 -7 12 -3
8 5 9 0 4 -17 -5 -13 -9 -37 -11 -54 -2 -16 -10 -34 -18 -40 -7 -5 -26 -29
-40 -52 -15 -24 -32 -43 -37 -43 -6 0 -10 -7 -10 -16 0 -8 5 -12 11 -8 6 3 3
-5 -6 -20 -10 -15 -13 -26 -6 -26 6 0 14 -12 17 -26 4 -17 11 -23 21 -19 12 4
14 0 10 -15 -3 -11 -1 -18 4 -14 5 3 9 0 9 -6 0 -6 -7 -13 -15 -16 -8 -4 -15
-10 -15 -16 0 -5 4 -6 10 -3 6 3 7 -1 4 -9 -3 -9 -2 -16 4 -16 5 0 7 -10 5
-23 -3 -14 5 -33 21 -52 16 -18 26 -24 26 -16 0 11 3 12 11 4 12 -12 3 -36
-11 -28 -5 3 -14 -4 -20 -15 -6 -11 -17 -20 -25 -20 -8 0 -15 -4 -15 -10 0 -5
6 -10 13 -10 9 0 8 -3 -2 -9 -7 -5 -11 -14 -7 -20 5 -7 1 -9 -11 -4 -14 5 -15
3 -6 -7 8 -9 8 -20 1 -43 -8 -22 -8 -35 0 -48 10 -16 8 -21 -16 -33 -20 -11
-22 -15 -9 -16 10 0 17 -6 16 -13 -1 -6 2 -21 6 -31 6 -13 4 -21 -3 -24 -7 -2
-12 -8 -12 -13 0 -4 7 -6 16 -2 13 5 15 2 9 -15 -4 -14 -2 -22 5 -22 6 0 10
-6 7 -12 -2 -7 -10 -12 -16 -10 -14 3 -15 -15 -1 -23 16 -10 12 -19 -12 -30
-14 -6 -25 -22 -28 -40 -6 -33 12 -61 32 -49 7 4 4 -2 -6 -14 -24 -28 -7 -29
27 -2 36 29 48 25 12 -5 -16 -13 -37 -24 -46 -25 -24 0 -33 -30 -10 -30 11 0
22 6 24 13 4 9 6 9 6 0 1 -7 -8 -17 -19 -23 -11 -6 -18 -15 -16 -19 3 -5 -3
-16 -14 -26 -24 -21 -27 -73 -5 -81 17 -7 20 -45 5 -60 -6 -6 -13 -24 -16 -40
-3 -16 -18 -50 -33 -76 -16 -25 -32 -56 -36 -67 -3 -12 -11 -19 -16 -16 -5 4
-9 1 -9 -6 0 -6 -8 -17 -17 -24 -15 -11 -16 -15 -3 -31 13 -16 13 -17 -1 -12
-15 6 -99 -62 -99 -80 0 -5 -11 -15 -25 -22 -30 -16 -31 -26 -5 -40 15 -8 19
-17 15 -31 -4 -10 1 -29 9 -41 17 -24 20 -38 9 -38 -5 0 -19 23 -32 50 -26 51
-39 62 -22 17 8 -20 7 -27 -6 -31 -9 -4 -18 -4 -21 -1 -3 3 1 5 8 5 11 0 11 3
3 11 -7 7 -19 9 -28 5 -14 -5 -13 -9 7 -30 13 -13 26 -22 29 -20 10 6 39 -43
39 -66 0 -21 -14 -27 -25 -10 -3 6 -1 10 4 10 17 0 13 26 -6 41 -16 13 -17 12
-4 -4 17 -21 12 -27 -27 -32 -24 -3 -32 1 -41 21 -14 32 -5 49 15 29 33 -33
36 -13 3 22 -18 21 -36 40 -38 43 -2 3 0 -6 4 -18 6 -22 5 -23 -17 -17 -18 5
-20 4 -8 -4 8 -6 11 -11 6 -11 -5 0 -3 -6 3 -14 9 -11 6 -21 -15 -45 -22 -27
-26 -38 -21 -73 3 -23 2 -49 -3 -59 -6 -9 -6 -28 0 -45 28 -91 40 -140 40
-169 0 -19 7 -40 15 -49 10 -10 12 -17 4 -21 -18 -12 -33 13 -45 73 l-11 57
-1 -45 c-1 -25 3 -63 9 -85 6 -22 13 -51 16 -65 6 -25 6 -25 -17 3 -17 21 -25
25 -31 16 -4 -7 -5 6 -2 28 6 43 -6 128 -14 106 -8 -21 -21 -15 -36 17 -11 20
-12 30 -4 33 9 3 8 12 -1 33 -13 27 -15 28 -27 10 -12 -15 -11 -23 4 -49 18
-33 24 -70 9 -61 -4 3 -8 11 -8 17 0 7 -14 32 -30 57 -28 43 -44 51 -18 10 17
-26 2 -38 -18 -14 -15 18 -15 18 -9 -4 6 -22 5 -22 -36 -16 -25 4 -51 16 -61
28 -11 14 -17 16 -18 7 0 -7 -6 -11 -14 -8 -10 4 -13 1 -10 -8 3 -7 -2 -15
-13 -18 -10 -3 8 -5 39 -6 80 -1 86 -21 6 -22 -60 -1 -61 -1 -34 -13 l28 -13
-29 -6 c-28 -6 -29 -8 -26 -55 2 -35 -2 -54 -12 -62 -13 -10 -15 -9 -15 10 0
20 -2 21 -17 9 -19 -16 -23 -16 -34 3 -7 10 -9 10 -9 -2 0 -13 -1 -13 -10 0
-8 12 -10 11 -8 -5 4 -59 -2 -72 -34 -80 -18 -4 -36 -7 -40 -6 -11 1 -10 -1 8
-44 18 -45 13 -54 -15 -26 -13 13 -21 34 -21 56 0 23 -8 42 -24 57 -13 13 -28
32 -34 43 -6 11 -12 15 -12 8 0 -7 -7 -10 -15 -7 -8 4 -15 1 -15 -6 0 -6 -8
-10 -17 -9 -31 3 -43 -1 -43 -12 0 -5 4 -8 9 -4 5 3 12 2 15 -3 2 -4 -9 -15
-25 -24 -22 -13 -31 -14 -41 -5 -7 7 -24 12 -38 12 -14 0 -27 3 -30 6 -9 12
-52 -11 -57 -31 -3 -11 -10 -20 -15 -20 -10 0 -8 17 7 54 8 17 7 17 -24 2 -17
-9 -29 -21 -26 -26 4 -6 1 -10 -4 -10 -6 0 -11 -7 -11 -15 0 -8 -9 -15 -20
-15 -11 0 -20 4 -20 9 0 5 -10 12 -22 16 -21 6 -21 8 -4 12 10 3 22 -1 27 -8
6 -11 11 -11 20 -2 12 12 7 14 -63 27 -9 2 -19 -3 -22 -11 -4 -8 -13 -13 -21
-9 -8 3 -17 1 -20 -4 -13 -21 -40 -5 -49 30 l-7 25 20 -25 c27 -33 33 -23 11
18 -10 18 -21 29 -24 23 -8 -12 -69 -6 -109 10 -21 9 -31 8 -43 -2 -14 -11
-15 -10 -12 6 4 27 -26 31 -60 6 -31 -21 -77 -19 -68 4 2 7 2 16 -2 20 -4 3
-7 14 -7 23 0 13 -8 16 -32 14 -18 -2 -41 1 -50 7 -10 6 -12 11 -5 11 6 0 12
5 12 11 0 6 -12 8 -32 5 -29 -5 -27 -3 14 17 51 24 64 41 23 31 -25 -6 -27 4
-10 48 4 10 3 18 -2 18 -12 0 -83 -49 -83 -58 0 -10 -44 -10 -50 0 -7 9 -88
-20 -172 -63 -67 -34 -105 -34 -43 0 39 21 37 22 -13 6 -22 -6 -23 -5 -13 14
11 19 10 20 -16 11 l-28 -10 28 24 c26 24 37 43 17 31 -6 -3 -7 1 -4 9 4 11 0
16 -15 16 -25 0 -25 -2 -6 44 14 32 14 37 0 42 -12 5 -11 10 8 26 l22 19 -40
-6 c-95 -14 -106 -14 -127 7 -16 16 -28 19 -58 14 -22 -3 -41 -2 -45 3 -3 6
-26 13 -51 17 -33 5 -48 12 -54 28 -6 15 -9 16 -9 5 -1 -17 -28 -45 -36 -38
-4 5 26 97 38 117 10 15 -5 16 -21 0 -16 -16 -29 -1 -15 20 6 9 20 16 32 15
12 -2 21 2 21 7 0 6 -5 10 -11 10 -8 0 -8 4 0 14 10 11 3 20 -33 46 -41 30
-44 34 -35 63 12 41 11 50 -1 42 -6 -4 -10 7 -10 24 0 18 5 31 13 31 8 0 7 3
-3 10 -19 12 -5 25 28 25 19 0 30 8 42 29 17 32 67 83 90 91 8 3 26 22 39 42
14 21 32 44 40 50 10 9 11 13 3 13 -9 0 -9 6 2 23 8 12 18 39 21 59 6 30 4 39
-9 44 -9 3 -23 1 -31 -6 -27 -22 -18 32 10 63 14 15 21 27 15 27 -7 0 -9 8 -5
20 4 11 2 20 -4 20 -6 0 -11 8 -11 18 0 10 -3 22 -7 26 -10 10 -3 78 9 94 6 6
7 12 2 12 -4 0 -3 5 4 12 15 15 16 58 1 58 -5 0 -8 -4 -5 -9 3 -5 -1 -12 -10
-15 -27 -11 -30 4 -5 23 17 13 38 17 75 15 28 -2 41 0 29 2 -13 3 -23 10 -23
15 0 5 -8 9 -17 10 -11 0 -7 5 10 11 18 6 26 15 23 24 -6 15 19 19 48 8 26
-10 -1 -34 -38 -35 -30 0 -30 -1 -7 -10 18 -7 30 -5 47 6 13 9 24 13 24 11 0
-8 72 25 87 39 8 9 9 16 3 20 -5 3 -10 1 -10 -5 0 -6 -5 -8 -10 -5 -6 3 -13
-1 -16 -9 -3 -9 -10 -16 -16 -16 -5 0 -7 4 -4 8 3 4 -11 9 -31 9 -19 1 -40 6
-45 11 -6 6 -18 8 -27 6 -9 -3 3 4 26 15 33 15 58 19 105 16 41 -2 52 -1 33 4
-27 6 -28 8 -10 14 12 4 40 6 64 5 37 -1 47 3 71 30 23 27 32 31 59 26 21 -4
31 -3 31 5 0 8 -8 10 -22 6 -22 -6 -22 -5 -5 9 13 10 15 16 7 21 -9 6 -9 10 1
17 10 6 7 7 -10 3 -16 -5 -21 -4 -17 4 10 15 0 14 -27 -4 -22 -14 -120 -18
-111 -4 6 11 44 18 44 8 0 -5 9 -9 21 -9 15 0 19 5 15 15 -4 11 2 15 20 15 14
0 23 4 19 9 -3 5 0 13 6 17 8 5 9 3 4 -6 -6 -10 -3 -12 13 -8 13 4 22 1 22 -5
0 -6 3 -7 7 -3 11 11 -38 46 -65 46 -14 0 -21 4 -16 11 3 6 20 9 38 6 36 -5
66 7 66 28 0 8 5 15 10 15 6 0 10 6 10 14 0 8 7 16 15 20 15 5 16 30 3 52 -10
14 -13 108 -5 122 4 6 3 13 -3 17 -6 4 -8 11 -5 16 12 19 23 8 29 -28 13 -72
26 -94 55 -91 20 2 27 9 29 31 2 16 -2 34 -8 42 -7 9 -8 15 0 20 5 3 10 17 10
31 0 13 4 24 9 24 8 0 3 39 -18 145 -5 27 -8 51 -6 53 5 6 -50 57 -58 54 -4
-1 -17 4 -27 11 -18 13 -18 13 0 25 15 9 22 9 34 -3 15 -15 36 -20 36 -8 0 3
-8 15 -17 25 -15 17 -15 19 3 33 10 8 25 15 32 15 6 0 12 5 12 10 0 6 -15 4
-36 -5 -45 -19 -49 -19 -30 0 8 8 22 15 31 15 9 0 13 5 10 10 -9 14 19 12 33
-2 14 -14 16 0 4 20 -5 7 -16 10 -25 6 -10 -3 -17 -1 -17 5 0 6 4 11 8 11 14
0 31 59 18 63 -8 3 -8 8 1 19 7 8 10 17 7 20 -3 3 -7 47 -9 98 -4 88 -8 105
-24 105 -9 0 -61 41 -61 49 0 3 7 3 15 0 20 -8 19 -2 -5 26 -11 13 -20 18 -20
12 0 -7 -5 -12 -11 -12 -6 0 -9 7 -5 15 3 8 1 15 -4 15 -18 0 -10 20 8 21 13
0 14 2 2 6 -28 12 -38 28 -24 41 8 7 15 8 19 2 3 -6 1 -10 -5 -10 -6 0 -8 -5
-5 -11 4 -6 13 -8 21 -5 8 3 25 1 39 -4 15 -6 27 -6 30 0 3 5 12 7 20 3 10 -3
15 1 15 11 0 22 -30 33 -41 15 -6 -9 -9 -10 -9 -2 0 23 36 36 58 20 8 -7 12
-4 12 11 0 11 6 23 13 25 6 3 -2 6 -19 6 -17 1 -37 8 -44 16 -11 13 -15 13
-21 3 -5 -7 -9 -8 -9 -2 0 20 12 22 50 9 35 -12 40 -12 56 6 16 18 16 19 -9
19 -35 0 -35 24 1 56 19 18 22 24 9 20 -10 -3 -24 -6 -30 -6 -7 0 -6 -4 3 -10
13 -8 12 -10 -2 -10 -10 0 -18 5 -18 11 0 6 -7 3 -16 -5 -22 -22 -27 -20 -13
7 11 20 11 21 -5 8 -14 -12 -16 -12 -10 3 9 22 -2 20 -40 -9 -35 -27 -52 -32
-40 -14 9 15 -93 109 -118 109 -10 0 -18 4 -18 9 0 5 -13 11 -29 14 -29 6 -30
7 -15 36 14 29 33 42 66 46 28 3 34 15 8 15 -19 0 -20 2 -10 15 11 13 8 15
-16 15 l-27 0 22 24 22 23 -23 7 c-22 7 -22 8 9 19 42 15 65 37 39 37 -9 0
-14 5 -11 10 3 6 1 10 -4 10 -6 0 -11 6 -11 14 0 17 168 95 304 140 323 107
612 135 913 90z m-1371 -448 c8 -8 7 -14 -5 -23 -15 -11 -14 -12 2 -13 21 0
23 -30 1 -30 -8 0 -13 -4 -10 -9 3 -5 16 -7 28 -3 15 3 19 2 14 -7 -10 -16 12
-80 41 -118 l24 -33 -39 0 c-48 0 -87 38 -97 93 -4 20 -14 41 -22 46 -11 6
-12 10 -4 15 6 4 11 12 11 18 0 6 -7 5 -17 -4 -23 -20 -63 -32 -63 -19 0 5 8
15 18 21 16 11 16 11 0 6 -22 -7 -23 7 -2 29 23 23 74 47 74 35 0 -5 -5 -10
-12 -10 -6 0 -9 -2 -6 -5 10 -11 39 8 34 22 -6 14 8 9 30 -11z"/>
<path d="M4500 3969 c-63 -5 -178 -16 -255 -24 -128 -15 -201 -25 -400 -56
-190 -30 -565 -130 -769 -204 -38 -14 -71 -25 -72 -25 -2 0 -4 -405 -4 -900 0
-495 -2 -900 -4 -900 -2 0 -23 7 -47 16 -58 20 -224 20 -303 -1 -142 -37 -271
-140 -329 -262 -28 -60 -32 -78 -32 -153 0 -68 5 -94 24 -132 50 -102 151
-181 275 -214 68 -18 198 -18 271 1 139 36 271 128 332 232 53 90 53 92 53
870 l0 722 68 20 c200 60 486 123 717 160 138 22 401 51 460 51 l35 0 0 -496
c0 -469 -1 -496 -17 -489 -75 30 -224 38 -317 16 -148 -35 -285 -140 -347
-267 -31 -62 -34 -77 -34 -154 0 -78 3 -91 34 -148 169 -312 712 -271 878 66
l38 76 3 1103 2 1103 -72 -1 c-40 -1 -125 -6 -188 -10z"/>
<path d="M1670 1297 c0 -3 18 -36 40 -72 22 -36 40 -68 40 -70 0 -5 24 -33 68
-77 15 -16 24 -28 20 -28 -8 0 24 -40 69 -86 17 -18 28 -36 25 -40 -4 -4 -2
-4 4 -1 15 9 38 -19 28 -34 -4 -7 -3 -9 4 -5 6 3 18 -7 28 -23 11 -19 23 -27
32 -23 11 4 13 1 7 -8 -6 -9 -4 -11 5 -5 10 6 12 4 7 -9 -4 -10 -3 -15 3 -11
12 8 42 -20 32 -29 -3 -4 1 -4 11 -1 12 5 22 -2 34 -24 10 -17 23 -31 30 -31
6 0 15 -5 19 -12 5 -7 3 -8 -6 -3 -9 5 -11 4 -6 -4 4 -7 13 -10 19 -8 6 2 18
-5 27 -15 8 -11 22 -20 30 -22 30 -5 91 -49 86 -62 -6 -15 40 -48 54 -39 6 3
10 1 10 -5 0 -6 4 -8 10 -5 5 3 47 -16 92 -42 46 -26 110 -60 143 -75 33 -15
61 -33 63 -40 3 -14 96 -54 119 -52 7 1 10 -2 7 -7 -3 -5 2 -9 11 -9 9 0 13 5
10 10 -8 13 -11 13 60 -9 54 -17 57 -19 30 -23 -28 -4 -27 -5 15 -14 25 -6 49
-8 53 -4 12 11 130 -20 144 -38 7 -8 42 -21 78 -27 57 -11 67 -11 72 2 4 9 15
12 32 9 14 -3 47 -8 74 -11 31 -4 47 -11 47 -21 0 -11 16 -14 75 -14 41 0 75
4 75 9 0 4 30 11 68 14 54 5 69 3 79 -10 18 -23 138 -14 157 12 12 17 28 20
108 21 152 2 156 3 182 27 14 13 51 29 83 37 32 7 72 18 88 25 54 24 124 45
137 43 7 -2 16 -7 20 -13 5 -6 8 -6 8 2 0 7 27 22 60 34 33 12 60 28 60 35 0
17 32 34 65 34 14 0 28 6 31 14 3 9 12 12 21 9 12 -5 14 -3 8 7 -6 10 -4 12 8
7 11 -4 17 -1 17 7 0 7 50 46 112 87 188 125 211 142 272 201 32 31 65 54 71
52 7 -3 15 2 19 11 4 10 2 14 -6 9 -7 -5 -8 -3 -4 5 5 7 15 10 23 7 11 -5 13
-2 9 10 -4 11 -2 15 8 11 10 -4 13 -1 10 8 -3 8 4 22 16 32 12 10 26 27 32 38
6 11 -36 -25 -93 -81 -204 -198 -348 -300 -594 -422 -216 -107 -406 -169 -650
-213 -174 -31 -555 -34 -734 -6 -460 73 -882 274 -1216 580 -78 71 -211 211
-252 265 -52 68 -90 121 -119 165 -19 29 -34 48 -34 44z"/>
</g>
</svg>
