<?xml version="1.0" standalone="no"?>
<!DOCTYPE svg PUBLIC "-//W3C//DTD SVG 20010904//EN"
 "http://www.w3.org/TR/2001/REC-SVG-20010904/DTD/svg10.dtd">
<svg version="1.0" xmlns="http://www.w3.org/2000/svg"
 width="728.000000pt" height="724.000000pt" viewBox="0 0 728.000000 724.000000"
 preserveAspectRatio="xMidYMid meet">

<g transform="translate(0.000000,724.000000) scale(0.100000,-0.100000)"
fill="#000000" stroke="none">
<path d="M3409 6856 c-2 -2 -38 -6 -79 -9 -93 -7 -339 -45 -354 -55 -6 -3 -20
-6 -31 -4 -11 1 -4 -5 15 -12 27 -11 30 -15 13 -15 -12 -1 -32 4 -45 9 -18 9
-54 2 -178 -34 -157 -46 -316 -100 -335 -115 -5 -5 -28 -14 -50 -21 -37 -12
-197 -92 -342 -171 -35 -19 -63 -41 -63 -49 0 -13 -1 -13 -10 0 -8 13 -10 13
-10 -1 0 -9 -6 -16 -12 -16 -16 2 -148 -82 -148 -94 0 -5 -5 -9 -11 -9 -6 0
-39 -21 -73 -46 -214 -160 -496 -445 -639 -644 -9 -14 -37 -53 -62 -87 -25
-35 -45 -65 -45 -67 0 -5 -26 -45 -62 -98 -36 -53 -208 -386 -208 -403 0 -2
-11 -28 -24 -57 -51 -114 -156 -470 -180 -613 -40 -237 -58 -470 -51 -670 6
-168 43 -486 70 -594 57 -230 79 -309 105 -377 16 -43 30 -82 30 -87 0 -4 13
-36 29 -70 16 -34 41 -89 56 -122 48 -108 136 -279 159 -310 13 -16 31 -45 40
-63 9 -18 46 -73 82 -121 35 -49 64 -93 64 -100 0 -6 4 -11 8 -11 4 0 42 -42
85 -92 42 -51 101 -119 132 -151 30 -31 55 -62 55 -67 0 -6 4 -10 9 -10 5 0
33 -23 62 -51 98 -93 251 -222 316 -267 36 -24 73 -52 83 -62 10 -10 40 -30
66 -46 27 -15 79 -47 115 -71 37 -24 72 -43 78 -43 6 0 11 -4 11 -9 0 -5 15
-12 34 -15 19 -4 36 -11 38 -17 3 -9 95 -53 203 -96 22 -9 42 -19 45 -22 3 -3
39 -18 80 -33 41 -14 102 -36 135 -48 33 -13 73 -24 89 -26 25 -3 96 -22 249
-66 20 -6 40 -8 44 -5 3 4 -3 7 -15 7 -12 0 -22 5 -22 10 0 6 -15 10 -32 10
-38 1 -185 49 -150 50 12 0 22 6 22 13 0 8 -7 14 -15 14 -8 0 -16 -6 -19 -14
-6 -15 -46 -18 -46 -3 0 6 -9 10 -19 10 -11 0 -23 5 -27 11 -3 6 -18 8 -33 5
-21 -4 -22 -4 -6 4 11 5 36 11 57 15 20 3 39 12 42 21 3 8 2 13 -3 10 -5 -3
-12 1 -15 10 -8 21 -8 23 7 20 30 -7 47 -20 47 -37 0 -10 5 -19 11 -19 5 0 7
5 4 10 -3 6 -1 10 4 10 17 0 13 27 -4 34 -14 5 -14 8 1 31 11 17 12 25 4 25
-6 0 -10 6 -7 13 2 6 17 11 33 10 27 -3 27 -2 7 7 -40 16 -25 18 40 4 79 -17
108 -16 42 1 -27 8 -75 21 -105 30 -60 18 -171 28 -148 14 7 -5 9 -9 3 -9 -5
0 -17 5 -25 10 -11 7 -11 10 -2 10 7 0 10 4 7 10 -4 7 3 7 20 0 15 -6 34 -10
43 -10 9 1 -23 16 -73 34 -144 54 -229 91 -360 160 -737 386 -1281 1072 -1489
1880 -14 54 -38 166 -53 250 -26 144 -27 167 -28 471 0 283 3 336 23 457 73
459 222 830 495 1238 28 41 53 77 57 80 3 3 36 43 72 90 37 48 129 149 206
225 77 77 138 144 135 149 -4 5 -1 6 5 2 7 -4 55 28 114 77 57 46 126 98 155
117 29 18 50 37 47 41 -3 5 1 7 8 4 7 -3 24 5 38 17 14 13 31 24 37 25 7 2 43
22 80 44 80 50 235 124 348 168 44 18 89 36 100 41 44 19 255 80 337 97 48 9
84 21 81 27 -3 5 -2 6 3 3 6 -3 68 3 140 13 71 10 149 21 174 24 25 4 146 6
270 6 214 1 417 -15 530 -40 220 -49 279 -63 333 -81 84 -29 98 -32 130 -32
17 0 24 -3 17 -7 -8 -5 2 -12 26 -20 84 -28 305 -130 404 -186 128 -73 151
-87 164 -97 104 -76 198 -138 202 -134 10 10 64 -15 75 -34 5 -11 15 -16 21
-13 7 4 8 3 4 -4 -5 -9 -14 -7 -32 4 -13 9 -24 20 -24 24 0 4 -10 10 -22 13
-17 4 -12 -4 22 -33 44 -39 44 -39 65 -20 12 11 25 20 31 20 5 -1 -2 -10 -16
-21 l-25 -21 74 -69 c40 -38 77 -66 82 -63 5 3 9 -1 9 -8 1 -7 33 -47 73 -89
41 -42 90 -97 111 -123 37 -45 56 -57 56 -35 0 5 -5 7 -11 3 -8 -4 -9 1 -5 17
3 13 3 18 0 11 -8 -18 -106 88 -99 106 3 7 0 10 -5 7 -10 -6 -51 30 -44 39 2
3 1 4 -2 1 -9 -6 -38 24 -31 32 3 3 13 -1 21 -8 44 -40 46 -41 46 -21 0 23
-34 64 -45 54 -5 -4 -5 1 -2 11 4 10 7 25 7 33 0 18 24 18 40 -1 7 -8 16 -13
20 -10 5 3 11 -1 13 -7 3 -8 6 -6 6 5 1 11 -5 17 -15 15 -10 -2 -19 3 -22 11
-3 8 0 11 7 7 7 -5 9 -1 4 9 -5 14 -8 14 -15 3 -7 -9 -8 -7 -5 9 4 16 0 23
-16 25 -18 3 -19 5 -6 18 9 8 16 19 17 25 0 5 15 13 32 16 17 4 34 10 38 14 4
5 -1 5 -10 2 -11 -4 -18 -1 -18 6 0 15 -60 76 -75 77 -5 0 -10 4 -10 9 0 5 -3
13 -7 17 -5 4 -8 2 -8 -4 0 -7 -7 -12 -16 -12 -14 0 -15 2 -3 17 12 15 12 16
-3 10 -10 -3 -20 -2 -23 3 -4 6 -1 10 6 10 12 0 -50 60 -63 60 -4 0 -13 -7
-22 -15 -8 -8 -17 -11 -21 -6 -3 5 4 12 15 16 19 6 29 25 12 25 -4 0 -20 11
-35 25 -16 16 -27 21 -28 13 0 -7 -3 -6 -7 4 -4 9 -47 45 -96 78 -49 34 -86
55 -83 46 4 -10 3 -15 -3 -11 -6 3 -10 12 -10 18 0 18 -110 82 -134 79 -17 -2
-18 -1 -6 7 9 7 10 11 3 11 -7 0 -31 13 -55 29 -24 16 -54 32 -68 36 -14 4
-36 15 -50 24 -45 29 -131 68 -153 69 -4 0 -19 8 -32 16 -13 9 -32 18 -42 19
-10 2 -29 9 -43 14 -61 26 -135 55 -140 54 -3 0 -48 13 -101 29 -107 33 -149
42 -197 42 -18 0 -30 3 -27 8 2 4 -39 15 -93 24 -53 9 -122 21 -152 26 -30 5
-86 12 -124 15 -38 3 -72 8 -77 10 -4 3 -10 -1 -12 -7 -4 -10 -6 -10 -6 0 -1
8 -17 12 -47 12 -37 0 -45 -3 -40 -15 3 -8 1 -15 -4 -15 -6 0 -10 6 -10 14 0
12 -28 15 -164 15 -90 0 -165 -1 -167 -3z m-29 -26 c-8 -5 -32 -10 -52 -10
-42 0 -70 -9 -63 -19 2 -4 -22 -6 -53 -5 -31 2 -48 1 -37 -2 34 -10 43 -26 10
-18 -16 4 -31 11 -33 15 -2 5 -18 5 -35 2 -18 -3 -30 -3 -27 0 8 8 77 19 114
18 16 0 35 4 41 9 6 5 35 10 65 13 30 2 62 4 70 5 13 2 13 1 0 -8z m60 0 c0
-5 -2 -10 -4 -10 -3 0 -8 5 -11 10 -3 6 -1 10 4 10 6 0 11 -4 11 -10z m450 0
c0 -5 -7 -7 -15 -4 -8 4 -15 8 -15 10 0 2 7 4 15 4 8 0 15 -4 15 -10z m117
-26 c14 -13 14 -17 2 -25 -8 -5 -19 -9 -26 -9 -6 0 -18 -2 -26 -5 -7 -3 -14 0
-14 8 0 9 10 12 29 9 16 -3 28 0 28 7 0 6 -4 11 -10 11 -5 0 -10 5 -10 10 0
14 9 12 27 -6z m-664 -1 c-13 -2 -33 -2 -45 0 -13 2 -3 4 22 4 25 0 35 -2 23
-4z m381 -1 c2 -4 -4 -9 -15 -9 -10 -1 -19 2 -19 8 0 11 27 12 34 1z m399 1
c-18 -2 -48 -2 -65 0 -18 2 -4 4 32 4 36 0 50 -2 33 -4z m-1116 -35 c-3 -8 -6
-5 -6 6 -1 11 2 17 5 13 3 -3 4 -12 1 -19z m336 15 c-13 -2 -33 -2 -45 0 -13
2 -3 4 22 4 25 0 35 -2 23 -4z m-290 -10 c-7 -2 -19 -2 -25 0 -7 3 -2 5 12 5
14 0 19 -2 13 -5z m52 -13 c4 -6 -9 -10 -32 -9 -38 1 -38 1 -8 9 17 4 31 8 32
9 1 0 5 -3 8 -9z m-245 -20 c0 -5 -8 -10 -17 -10 -15 0 -16 2 -3 10 19 12 20
12 20 0z m1593 -7 c-7 -2 -19 -2 -25 0 -7 3 -2 5 12 5 14 0 19 -2 13 -5z
m-1636 -9 c-10 -11 -67 -13 -61 -3 3 5 19 9 36 9 17 0 28 -3 25 -6z m58 -14
c-3 -5 -16 -10 -28 -10 -18 0 -19 2 -7 10 20 13 43 13 35 0z m-148 -17 c0 -8
-6 -9 -16 -4 -9 5 -23 11 -31 14 -8 3 -1 4 16 4 17 -1 31 -7 31 -14z m1757 11
c24 -9 19 -24 -6 -24 -18 0 -20 2 -9 9 11 7 9 10 -10 14 -13 2 -16 5 -7 6 9 0
23 -2 32 -5z m-1679 -14 c3 -6 -1 -7 -9 -4 -18 7 -21 14 -7 14 6 0 13 -4 16
-10z m1850 -10 c3 -5 1 -10 -4 -10 -6 0 -11 5 -11 10 0 6 2 10 4 10 3 0 8 -4
11 -10z m-2015 -10 c0 -5 -7 -10 -15 -10 -8 0 -15 5 -15 10 0 6 7 10 15 10 8
0 15 -4 15 -10z m165 -10 c4 -6 11 -8 16 -5 5 4 9 -1 9 -9 0 -9 -6 -16 -13
-16 -14 0 -37 20 -37 32 0 11 18 10 25 -2z m1885 0 c0 -5 -2 -10 -4 -10 -3 0
-8 5 -11 10 -3 6 -1 10 4 10 6 0 11 -4 11 -10z m-2095 -19 c6 -11 -55 -44 -64
-35 -3 3 3 12 13 20 11 8 15 14 9 14 -23 0 -43 -12 -43 -26 0 -8 -4 -14 -10
-14 -17 0 -11 28 8 39 21 13 79 14 87 2z m280 -12 c-7 -10 -35 -1 -35 11 0 5
9 6 20 3 11 -3 17 -9 15 -14z m-395 -19 c0 -5 -9 -6 -20 -3 -11 3 -17 9 -15
14 7 10 35 1 35 -11z m2277 14 c-3 -3 -12 -4 -19 -1 -8 3 -5 6 6 6 11 1 17 -2
13 -5z m-2087 -14 c0 -5 -14 -10 -31 -10 -17 0 -28 4 -24 10 3 6 17 10 31 10
13 0 24 -4 24 -10z m637 -6 c-3 -3 -12 -4 -19 -1 -8 3 -5 6 6 6 11 1 17 -2 13
-5z m-907 -14 c0 -5 -4 -10 -10 -10 -5 0 -10 5 -10 10 0 6 5 10 10 10 6 0 10
-4 10 -10z m650 0 c-8 -5 -22 -9 -30 -9 -10 0 -8 3 5 9 27 12 43 12 25 0z m80
-5 c-14 -16 -25 -21 -15 -6 3 5 -3 12 -12 14 -11 3 -6 5 11 6 24 1 27 -1 16
-14z m63 -2 c-7 -2 -19 -2 -25 0 -7 3 -2 5 12 5 14 0 19 -2 13 -5z m1082 -3
c15 -6 11 -7 -17 -7 -23 1 -33 4 -25 9 14 9 16 9 42 -2z m635 -5 c7 -8 9 -15
6 -15 -4 0 -14 7 -22 15 -9 8 -11 15 -6 15 5 0 15 -7 22 -15z m-2550 -4 c0 -5
-11 -11 -25 -13 -28 -6 -35 8 -7 15 28 8 32 7 32 -2z m390 -12 c0 -8 -30 -14
-52 -10 -5 0 -8 -3 -8 -8 0 -6 -10 -8 -21 -6 -44 9 -38 26 10 29 16 1 33 4 36
8 9 8 35 -1 35 -13z m136 -4 c-16 -17 -36 -20 -36 -6 0 8 17 16 43 20 5 0 2
-6 -7 -14z m89 -8 c6 -5 0 -5 -13 -2 -13 4 -29 1 -37 -5 -8 -7 -20 -10 -27 -7
-7 2 3 11 22 19 19 8 37 12 40 9 3 -3 10 -9 15 -14z m32 17 c-3 -3 -12 -4 -19
-1 -8 3 -5 6 6 6 11 1 17 -2 13 -5z m1308 -4 c-3 -5 -12 -10 -18 -10 -7 0 -6
4 3 10 19 12 23 12 15 0z m-2015 -26 c0 -10 5 -14 16 -10 8 3 12 2 9 -4 -3 -6
-24 -10 -45 -10 -48 0 -97 -20 -78 -31 8 -5 -2 -8 -25 -7 l-38 1 53 29 c29 16
61 27 71 24 13 -3 17 0 13 10 -3 8 1 14 9 14 8 0 15 -7 15 -16z m2067 10 c-3
-3 -12 -4 -19 -1 -8 3 -5 6 6 6 11 1 17 -2 13 -5z m570 0 c-3 -3 -12 -4 -19
-1 -8 3 -5 6 6 6 11 1 17 -2 13 -5z m-2541 -18 c10 -8 16 -18 12 -22 -4 -4
-14 -2 -22 5 -8 7 -16 8 -18 4 -3 -4 -3 -3 -2 4 2 6 -2 14 -9 17 -7 3 -6 5 4
5 8 1 24 -5 35 -13z m431 -12 c-3 -3 -12 -4 -19 -1 -8 3 -5 6 6 6 11 1 17 -2
13 -5z m1700 0 c-3 -3 -12 -4 -19 -1 -8 3 -5 6 6 6 11 1 17 -2 13 -5z m-1767
-14 c0 -5 -4 -10 -10 -10 -5 0 -10 5 -10 10 0 6 5 10 10 10 6 0 10 -4 10 -10z
m1807 4 c-3 -3 -12 -4 -19 -1 -8 3 -5 6 6 6 11 1 17 -2 13 -5z m-1972 -13 c3
-5 -3 -12 -14 -16 -11 -3 -22 -14 -24 -23 -3 -9 -5 -2 -6 16 -1 25 3 32 18 32
11 0 22 -4 26 -9z m98 2 c-7 -2 -19 -2 -25 0 -7 3 -2 5 12 5 14 0 19 -2 13 -5z
m2394 -9 c-3 -3 -12 -4 -19 -1 -8 3 -5 6 6 6 11 1 17 -2 13 -5z m-2387 -8 c0
-2 -9 -6 -20 -9 -11 -3 -20 -1 -20 4 0 5 9 9 20 9 11 0 20 -2 20 -4z m1880 0
c0 -2 -7 -7 -16 -10 -8 -3 -12 -2 -9 4 6 10 25 14 25 6z m210 -36 c-24 -15
-36 -11 -14 4 10 8 21 12 24 10 2 -3 -2 -9 -10 -14z m335 10 c3 -6 -1 -7 -9
-4 -18 7 -21 14 -7 14 6 0 13 -4 16 -10z m-2822 -7 c-13 -2 -33 -2 -45 0 -13
2 -3 4 22 4 25 0 35 -2 23 -4z m282 -13 c-3 -5 -14 -10 -23 -9 -14 0 -13 2 3
9 27 11 27 11 20 0z m2139 -9 c4 -5 -3 -7 -14 -4 -23 6 -26 13 -6 13 8 0 17
-4 20 -9z m-2671 -43 c-8 -15 -22 -8 -17 7 4 9 0 15 -7 15 -11 0 -11 2 1 10
11 7 17 5 21 -8 4 -9 5 -20 2 -24z m427 27 c-7 -8 -18 -15 -24 -15 -6 0 -2 7
8 15 25 19 32 19 16 0z m2294 -4 c11 -4 15 -10 10 -13 -5 -4 -18 0 -29 8 -20
15 -12 17 19 5z m86 -1 c0 -5 -7 -7 -15 -4 -8 4 -15 8 -15 10 0 2 7 4 15 4 8
0 15 -4 15 -10z m390 -20 c0 -5 -7 -10 -16 -10 -8 0 -12 5 -9 10 3 6 10 10 16
10 5 0 9 -4 9 -10z m-393 -16 c-3 -3 -12 -4 -19 -1 -8 3 -5 6 6 6 11 1 17 -2
13 -5z m458 -13 c3 -5 1 -12 -5 -16 -5 -3 -10 1 -10 9 0 18 6 21 15 7z m-3325
-16 c0 -8 -8 -15 -19 -15 -22 0 -45 -25 -37 -39 4 -5 2 -12 -3 -15 -22 -14
-15 31 9 55 29 30 50 36 50 14z m2937 9 c-3 -3 -12 -4 -19 -1 -8 3 -5 6 6 6
11 1 17 -2 13 -5z m33 -28 c-4 -4 -16 -4 -26 2 -16 9 -14 10 8 9 15 -1 23 -6
18 -11z m-2680 -6 c0 -5 -9 -10 -21 -10 -11 0 -17 5 -14 10 3 6 13 10 21 10 8
0 14 -4 14 -10z m3125 -11 c11 -17 -1 -21 -15 -4 -8 9 -8 15 -2 15 6 0 14 -5
17 -11z m-3160 -19 c-3 -5 -12 -10 -18 -10 -7 0 -6 4 3 10 19 12 23 12 15 0z
m3203 -15 c-3 -3 -9 2 -12 12 -6 14 -5 15 5 6 7 -7 10 -15 7 -18z m-3348 0
c-7 -9 -15 -13 -19 -10 -3 3 1 10 9 15 21 14 24 12 10 -5z m2990 5 c-8 -5 -22
-9 -30 -9 -10 0 -8 3 5 9 27 12 43 12 25 0z m-2940 -4 c0 -3 -4 -8 -10 -11 -5
-3 -10 -1 -10 4 0 6 5 11 10 11 6 0 10 -2 10 -4z m3347 -32 c-7 -7 -37 7 -37
17 0 6 9 5 21 -1 11 -7 19 -14 16 -16z m-382 6 c-3 -5 -12 -10 -18 -10 -7 0
-6 4 3 10 19 12 23 12 15 0z m-2965 -10 c-8 -5 -19 -10 -25 -10 -5 0 -3 5 5
10 8 5 20 10 25 10 6 0 3 -5 -5 -10z m3051 -57 c13 -16 12 -17 -3 -4 -10 7
-18 15 -18 17 0 8 8 3 21 -13z m73 8 c4 -5 -3 -7 -14 -4 -23 6 -26 13 -6 13 8
0 17 -4 20 -9z m293 3 c-3 -3 -12 -4 -19 -1 -8 3 -5 6 6 6 11 1 17 -2 13 -5z
m-3847 -8 c0 -11 -19 -15 -25 -6 -3 5 1 10 9 10 9 0 16 -2 16 -4z m3835 -26
c8 0 15 5 15 10 0 6 5 10 12 10 8 0 6 -7 -5 -17 -19 -19 -47 -10 -54 18 -3 8
0 7 7 -3 6 -10 18 -18 25 -18z m-285 10 c13 -9 13 -11 0 -20 -8 -5 -19 -10
-25 -10 -5 0 -3 5 5 10 13 9 13 11 0 20 -8 5 -10 10 -5 10 6 0 17 -5 25 -10z
m-3600 -10 c8 -5 11 -10 5 -10 -5 0 -17 5 -25 10 -8 5 -10 10 -5 10 6 0 17 -5
25 -10z m3690 -20 c0 -5 -4 -10 -10 -10 -5 0 -10 5 -10 10 0 6 5 10 10 10 6 0
10 -4 10 -10z m-44 -14 c18 5 18 5 0 -6 -15 -10 -21 -9 -35 6 -14 16 -14 17 0
6 9 -7 25 -10 35 -6z m327 -13 c-7 -2 -21 -2 -30 0 -10 3 -4 5 12 5 17 0 24
-2 18 -5z m-246 -28 c0 -8 -4 -15 -9 -15 -10 0 -11 14 -1 23 9 10 10 9 10 -8z
m-37 -5 c0 -5 -2 -10 -4 -10 -3 0 -8 5 -11 10 -3 6 -1 10 4 10 6 0 11 -4 11
-10z m255 0 c3 -5 1 -10 -4 -10 -6 0 -11 5 -11 10 0 6 2 10 4 10 3 0 8 -4 11
-10z m-157 -42 c19 -22 9 -24 -12 -2 -9 8 -16 23 -15 32 0 14 2 14 6 2 3 -8
12 -23 21 -32z m-38 -4 c0 -2 -9 0 -20 6 -11 6 -20 13 -20 16 0 2 9 0 20 -6
11 -6 20 -13 20 -16z m100 -1 c-1 -18 -19 -35 -29 -28 -9 5 -7 11 6 21 21 16
23 16 23 7z m-3730 -18 c11 -13 10 -14 -4 -9 -9 3 -16 10 -16 15 0 13 6 11 20
-6z m4001 -12 c13 -15 16 -21 6 -14 -9 8 -21 11 -24 7 -4 -4 -1 -12 7 -17 13
-9 13 -10 0 -6 -12 3 -27 57 -16 57 1 0 13 -12 27 -27z m-216 -63 c-10 -17 6
-34 17 -19 6 10 7 7 3 -8 -4 -14 -2 -23 4 -23 6 0 11 -5 11 -10 0 -13 -47 20
-55 38 -6 16 2 32 16 32 6 0 7 -4 4 -10z m-3870 -18 c-3 -3 -11 0 -18 7 -9 10
-8 11 6 5 10 -3 15 -9 12 -12z m4019 -17 c11 -8 16 -15 12 -15 -5 0 -3 -6 3
-14 9 -11 9 -20 2 -34 -7 -13 -7 -22 0 -29 7 -7 -4 -10 -33 -9 -42 2 -43 2
-43 36 -1 39 15 80 30 80 6 -1 19 -7 29 -15z m-79 -45 c3 -5 2 -10 -4 -10 -5
0 -13 5 -16 10 -3 6 -2 10 4 10 5 0 13 -4 16 -10z m-4075 -60 c0 -5 -5 -10
-11 -10 -5 0 -7 5 -4 10 3 6 8 10 11 10 2 0 4 -4 4 -10z m-36 -16 c3 -8 2 -12
-4 -9 -6 3 -10 10 -10 16 0 14 7 11 14 -7z m4192 -22 c-10 -10 -29 15 -21 28
6 9 10 8 17 -4 6 -10 7 -20 4 -24z m-4593 -447 c-3 -9 -8 -14 -10 -11 -3 3 -2
9 2 15 9 16 15 13 8 -4z m1372 -4385 c-3 -5 -12 -10 -18 -10 -7 0 -6 4 3 10
19 12 23 12 15 0z m65 -50 c18 -12 2 -12 -25 0 -13 6 -15 9 -5 9 8 0 22 -4 30
-9z m210 -62 c0 -12 -35 -9 -48 4 -21 21 -13 27 18 15 17 -6 30 -15 30 -19z
m-40 -22 c0 -3 -4 -8 -10 -11 -5 -3 -10 -1 -10 4 0 6 5 11 10 11 6 0 10 -2 10
-4z m-95 -116 c-3 -5 -21 -9 -38 -9 l-32 2 35 7 c19 4 36 8 38 9 2 0 0 -3 -3
-9z"/>
<path d="M5840 5915 c6 -8 9 -18 6 -23 -3 -5 7 -7 22 -5 21 4 24 2 12 -6 -12
-9 -10 -11 12 -11 27 0 68 -34 68 -54 -1 -6 -10 0 -20 13 -11 13 -20 19 -20
13 0 -18 30 -41 45 -36 22 9 19 14 -31 68 -30 32 -49 44 -54 37 -5 -9 -10 -8
-20 4 -7 8 -17 15 -22 15 -6 0 -5 -6 2 -15z"/>
<path d="M4820 5746 c-36 -7 -312 -63 -615 -124 -302 -62 -707 -144 -899 -182
-192 -39 -365 -78 -385 -86 -49 -21 -71 -42 -95 -94 -20 -45 -21 -54 -24
-1235 -3 -1114 -4 -1192 -21 -1225 -25 -49 -69 -75 -158 -94 -398 -83 -531
-133 -625 -234 -64 -70 -94 -129 -115 -226 -46 -222 90 -458 301 -522 167 -50
437 -10 592 87 103 65 187 179 225 305 l23 79 6 1090 c5 1008 6 1093 22 1117
16 24 16 27 1 33 -14 5 -12 9 12 26 l30 21 -28 -5 c-18 -3 -26 0 -24 7 2 6 15
10 28 8 49 -6 126 0 179 13 45 12 48 14 15 10 -22 -2 -65 -7 -95 -11 -33 -3
-65 -1 -80 5 l-25 11 28 -5 c15 -3 27 -1 27 5 0 5 12 10 28 10 32 1 60 20 55
38 -5 14 -63 17 -63 2 0 -5 -9 -10 -20 -10 -22 0 -27 15 -7 23 9 4 9 8 -2 15
-23 16 32 65 68 60 23 -3 27 -1 23 14 -2 10 1 18 8 18 7 0 4 8 -8 19 -31 26
-28 31 18 31 22 0 40 -4 40 -10 0 -5 -4 -10 -10 -10 -5 0 -10 -4 -10 -10 0 -5
9 -10 20 -10 17 0 20 7 20 40 0 22 -4 40 -10 40 -5 0 -10 -4 -10 -10 0 -6 -27
-10 -60 -10 -33 0 -60 -4 -60 -10 0 -5 -9 -10 -20 -10 -22 0 -27 15 -7 23 9 4
8 8 -3 17 -11 9 -12 13 -2 17 20 8 14 43 -8 43 -28 0 -25 6 20 50 45 44 48 50
20 50 -26 0 -25 8 2 31 35 31 58 25 58 -16 0 -25 4 -35 15 -35 18 0 65 43 65
60 0 5 19 10 43 11 30 0 36 3 23 8 -14 5 -16 10 -8 15 7 4 12 11 12 17 0 16
-25 10 -40 -11 -18 -25 -42 -27 -33 -3 10 26 50 63 68 63 8 0 15 5 15 10 0 6
-9 10 -20 10 -11 0 -20 5 -20 10 0 6 7 10 16 10 8 0 22 6 30 14 11 11 62 14
256 15 133 1 244 4 247 6 4 5 -140 6 -503 7 -76 0 -145 2 -152 5 -8 3 -14 16
-14 30 0 24 1 24 80 21 59 -2 80 0 80 10 0 8 17 12 50 12 54 0 61 -7 30 -30
-32 -23 -24 -31 28 -28 45 3 47 4 50 36 2 20 10 36 20 40 26 9 44 30 40 47 -2
12 -8 11 -29 -7 -14 -13 -28 -31 -32 -40 -3 -10 -13 -18 -22 -18 -22 0 -18 13
10 34 30 23 34 66 6 66 -10 0 -32 -7 -47 -15 -40 -20 -172 -21 -180 0 -5 11
-25 13 -102 11 -72 -3 -81 -2 -37 3 59 7 59 7 20 12 -36 5 -34 6 15 6 30 0 65
3 78 7 17 6 22 3 22 -9 0 -14 11 -16 73 -14 39 1 75 6 78 11 3 4 24 10 48 13
30 3 44 0 48 -11 6 -16 33 -19 33 -4 0 6 14 10 30 10 17 0 30 -4 30 -10 0 -5
13 -10 29 -10 20 0 30 6 34 20 3 11 12 20 21 20 9 0 16 4 16 9 0 5 9 13 20 16
11 3 20 13 20 21 0 11 -6 13 -22 9 -22 -7 -22 -6 -5 11 14 16 19 17 26 5 10
-16 31 -6 31 14 0 16 69 30 100 20 14 -4 20 -2 18 7 -2 8 9 14 31 16 31 3 33
2 22 -12 -12 -14 -10 -16 8 -16 12 0 19 5 16 10 -3 6 -1 10 4 10 15 0 14 18
-1 23 -7 2 -4 3 7 1 11 -2 30 -4 43 -4 13 0 21 -4 18 -9 -6 -9 93 -22 107 -14
14 8 -4 23 -29 23 -13 0 -24 4 -24 9 0 15 59 31 119 32 31 1 46 4 34 6 -50 10
-19 18 59 16 58 -1 74 1 53 7 -29 7 -29 8 -5 10 48 4 105 -2 108 -11 2 -5 18
-9 35 -9 29 1 30 2 13 12 -18 10 -15 13 30 34 27 13 59 20 70 18 12 -3 25 -1
28 5 4 6 25 11 47 11 22 0 39 5 39 11 0 8 14 10 40 6 27 -3 52 0 73 11 17 9
50 17 73 18 38 2 41 1 36 -19 -5 -20 -4 -20 11 -8 14 11 18 11 23 -3 4 -10 12
-15 19 -12 8 3 16 -2 19 -10 3 -9 10 -13 15 -9 6 3 6 -7 0 -27 -5 -18 -6 -46
-3 -63 4 -16 10 -412 14 -880 l7 -850 1 913 c2 977 3 952 -47 996 -28 25 -111
30 -201 12z m-103 -72 c-3 -3 -12 -4 -19 -1 -8 3 -5 6 6 6 11 1 17 -2 13 -5z
m-400 -80 c-3 -3 -12 -4 -19 -1 -8 3 -5 6 6 6 11 1 17 -2 13 -5z m740 -26 c-3
-8 -6 -5 -6 6 -1 11 2 17 5 13 3 -3 4 -12 1 -19z m-1377 -143 c0 -7 -9 -17
-20 -20 -22 -7 -27 -25 -7 -25 7 0 18 9 25 20 13 21 42 28 42 10 0 -5 -7 -10
-15 -10 -8 0 -19 -9 -25 -20 -14 -27 -60 -27 -60 -1 0 14 -9 21 -31 26 -17 4
-33 4 -36 1 -4 -3 -1 -6 6 -6 7 0 9 -4 6 -10 -11 -17 -35 -11 -35 9 0 11 -8
22 -17 25 -10 3 3 3 29 1 26 -2 64 2 85 9 41 15 53 13 53 -9z m-205 -15 c-3
-5 -12 -7 -20 -3 -10 3 -15 -1 -15 -12 0 -15 -6 -17 -40 -11 -26 4 -40 2 -40
-4 0 -6 -5 -8 -11 -4 -17 10 10 24 48 24 17 0 35 5 38 10 3 6 15 10 26 10 11
0 18 -4 14 -10z m-425 -90 c-8 -5 -27 -10 -42 -10 -23 0 -28 -4 -28 -25 0 -23
-3 -25 -27 -19 -25 7 -27 6 -14 -9 12 -15 11 -17 -12 -17 -23 0 -25 3 -18 22
4 12 17 27 27 33 10 5 21 13 24 17 4 5 33 11 90 16 13 2 13 1 0 -8z m350 -50
c0 -5 -6 -10 -14 -10 -8 0 -18 5 -21 10 -3 6 3 10 14 10 12 0 21 -4 21 -10z
m-529 -23 c-10 -9 -11 -8 -5 6 3 10 9 15 12 12 3 -3 0 -11 -7 -18z m-11 -51
c0 -13 2 -30 3 -38 2 -7 2 -10 0 -5 -15 25 -23 -4 -23 -79 0 -72 2 -85 15 -80
13 5 15 -21 13 -197 l-2 -202 -6 185 c-6 216 -19 197 -22 -34 -2 -102 -4 -59
-8 134 -3 157 -2 286 1 288 3 1 4 14 1 27 -3 18 0 25 12 25 10 0 16 -9 16 -24z
m335 -66 c5 -21 13 -30 26 -30 10 0 19 5 19 10 0 6 9 10 19 10 11 0 21 6 24
13 2 6 8 9 12 5 5 -5 -2 -17 -16 -28 -19 -17 -21 -23 -10 -30 12 -7 12 -11 -2
-24 -8 -9 -23 -16 -31 -16 -9 0 -16 -4 -16 -10 0 -5 -4 -10 -10 -10 -5 0 -10
9 -10 20 0 16 7 20 30 20 17 0 30 5 30 10 0 6 -13 10 -29 10 -17 0 -33 5 -36
10 -3 6 -40 10 -81 10 l-74 0 0 30 0 30 74 0 74 0 7 -30z m-328 -42 c-3 -7 -5
-2 -5 12 0 14 2 19 5 13 2 -7 2 -19 0 -25z m213 -318 c0 -5 -9 -10 -20 -10
-11 0 -20 5 -20 10 0 6 9 10 20 10 11 0 20 -4 20 -10z m80 -60 c0 -5 -4 -10
-10 -10 -5 0 -10 -9 -10 -20 0 -13 -7 -20 -20 -20 -23 0 -27 23 -7 45 14 16
47 20 47 5z m-120 -306 c0 -8 -5 -12 -10 -9 -6 4 -8 11 -5 16 9 14 15 11 15
-7z m-33 -116 c-3 -8 -6 -5 -6 6 -1 11 2 17 5 13 3 -3 4 -12 1 -19z m-8 -2093
c-2 -30 -2 -30 -9 5 -4 19 -8 27 -9 18 0 -10 -5 -18 -11 -18 -13 0 -13 6 1 32
9 17 13 18 20 7 5 -8 8 -27 8 -44z m-15 -38 c3 -13 1 -40 -5 -60 -11 -40 -23
-52 -13 -13 3 13 1 27 -6 31 -8 5 -8 10 1 21 6 7 9 21 5 29 -3 8 -2 15 3 15 5
0 11 -10 15 -23z m-50 -151 c-3 -9 -10 -16 -15 -16 -5 0 -4 9 3 20 14 22 21
20 12 -4z m-36 -59 c-13 -13 -15 -12 -15 14 0 26 2 28 15 15 13 -13 13 -16 0
-29z m-48 -29 c0 7 4 12 9 12 5 0 3 -13 -5 -30 -15 -30 -38 -43 -28 -16 3 8
-2 27 -12 43 l-18 28 27 -24 c15 -14 27 -19 27 -13z"/>
<path d="M6000 5750 c0 -8 5 -22 10 -30 9 -13 10 -13 10 0 0 8 -5 22 -10 30
-9 13 -10 13 -10 0z"/>
<path d="M6047 5725 c19 -25 50 -45 37 -23 -15 23 -39 48 -47 48 -4 0 0 -11
10 -25z"/>
<path d="M6016 5689 c-24 -28 -11 -38 15 -12 12 11 17 23 12 26 -5 3 -17 -3
-27 -14z"/>
<path d="M5826 5665 c-3 -8 -1 -15 4 -15 6 0 10 7 10 15 0 8 -2 15 -4 15 -2 0
-6 -7 -10 -15z"/>
<path d="M6070 5666 c0 -9 5 -16 10 -16 6 0 10 4 10 9 0 6 -4 13 -10 16 -5 3
-10 -1 -10 -9z"/>
<path d="M6100 5670 c0 -5 5 -10 11 -10 5 0 7 5 4 10 -3 6 -8 10 -11 10 -2 0
-4 -4 -4 -10z"/>
<path d="M4765 5660 c-3 -5 1 -13 10 -16 22 -9 29 1 11 15 -10 8 -16 9 -21 1z"/>
<path d="M6127 5629 c4 -13 8 -18 11 -10 2 7 -1 18 -6 23 -8 8 -9 4 -5 -13z"/>
<path d="M5870 5615 c13 -14 25 -25 27 -25 9 0 1 20 -13 34 -26 26 -39 18 -14
-9z"/>
<path d="M5001 5614 c0 -11 3 -14 6 -6 3 7 2 16 -1 19 -3 4 -6 -2 -5 -13z"/>
<path d="M5911 5614 c0 -11 3 -14 6 -6 3 7 2 16 -1 19 -3 4 -6 -2 -5 -13z"/>
<path d="M6090 5616 c0 -8 5 -18 10 -21 6 -3 10 3 10 14 0 12 -4 21 -10 21 -5
0 -10 -6 -10 -14z"/>
<path d="M6166 5587 c3 -10 9 -15 12 -12 3 3 0 11 -7 18 -10 9 -11 8 -5 -6z"/>
<path d="M4318 5563 c7 -3 16 -2 19 1 4 3 -2 6 -13 5 -11 0 -14 -3 -6 -6z"/>
<path d="M4458 5563 c7 -3 16 -2 19 1 4 3 -2 6 -13 5 -11 0 -14 -3 -6 -6z"/>
<path d="M6164 5533 l-2 -24 19 22 c23 27 23 25 1 25 -11 0 -18 -9 -18 -23z"/>
<path d="M4160 5530 c0 -5 5 -10 10 -10 6 0 10 5 10 10 0 6 -4 10 -10 10 -5 0
-10 -4 -10 -10z"/>
<path d="M4286 5533 c-13 -13 -5 -29 14 -29 11 0 20 6 20 12 0 14 -25 26 -34
17z"/>
<path d="M5962 5518 c9 -7 18 -26 22 -43 l6 -30 -28 33 c-16 17 -33 32 -38 32
-5 0 -4 -4 1 -8 6 -4 25 -27 42 -51 l32 -44 -5 48 c-4 48 -17 75 -37 75 -6 0
-4 -6 5 -12z"/>
<path d="M6187 5513 c-4 -3 -7 -11 -7 -17 0 -6 5 -5 12 2 6 6 9 14 7 17 -3 3
-9 2 -12 -2z"/>
<path d="M4008 5483 c7 -3 16 -2 19 1 4 3 -2 6 -13 5 -11 0 -14 -3 -6 -6z"/>
<path d="M6016 5385 c4 -8 11 -15 16 -15 6 0 5 6 -2 15 -7 8 -14 15 -16 15 -2
0 -1 -7 2 -15z"/>
<path d="M6080 5292 c0 -5 7 -15 15 -22 8 -7 15 -8 15 -2 0 5 -7 15 -15 22 -8
7 -15 8 -15 2z"/>
<path d="M3893 5153 c9 -2 23 -2 30 0 6 3 -1 5 -18 5 -16 0 -22 -2 -12 -5z"/>
<path d="M4013 5153 c9 -2 25 -2 35 0 9 3 1 5 -18 5 -19 0 -27 -2 -17 -5z"/>
<path d="M4113 5153 c9 -2 25 -2 35 0 9 3 1 5 -18 5 -19 0 -27 -2 -17 -5z"/>
<path d="M3392 5125 c-11 -13 -9 -15 8 -15 11 0 20 7 20 15 0 19 -11 19 -28 0z"/>
<path d="M3260 4910 c0 -5 5 -10 10 -10 6 0 10 5 10 10 0 6 -4 10 -10 10 -5 0
-10 -4 -10 -10z"/>
<path d="M3153 4885 c-23 -26 -15 -45 17 -45 23 0 30 4 30 20 0 13 7 20 20 20
11 0 20 5 20 10 0 15 -73 11 -87 -5z"/>
<path d="M3298 4833 c12 -2 32 -2 45 0 12 2 2 4 -23 4 -25 0 -35 -2 -22 -4z"/>
<path d="M3200 4790 c0 -5 5 -10 10 -10 6 0 10 5 10 10 0 6 -4 10 -10 10 -5 0
-10 -4 -10 -10z"/>
<path d="M4608 4763 c7 -3 16 -2 19 1 4 3 -2 6 -13 5 -11 0 -14 -3 -6 -6z"/>
<path d="M4518 4743 c7 -3 16 -2 19 1 4 3 -2 6 -13 5 -11 0 -14 -3 -6 -6z"/>
<path d="M4335 4710 c-13 -5 -14 -9 -5 -9 8 0 24 4 35 9 13 5 14 9 5 9 -8 0
-24 -4 -35 -9z"/>
<path d="M4854 4455 c0 -143 2 -200 3 -127 2 73 2 190 0 260 -1 70 -3 10 -3
-133z"/>
<path d="M4118 4663 c6 -2 18 -2 25 0 6 3 1 5 -13 5 -14 0 -19 -2 -12 -5z"/>
<path d="M3140 4610 c0 -5 11 -10 24 -10 14 0 28 5 31 10 4 6 -7 10 -24 10
-17 0 -31 -4 -31 -10z"/>
<path d="M3515 4590 c-3 -5 -3 -10 2 -11 4 0 -1 -5 -12 -10 -19 -8 -19 -9 -1
-6 11 1 18 6 17 11 -2 5 3 13 11 17 9 6 9 9 1 9 -6 0 -15 -4 -18 -10z"/>
<path d="M3668 4593 c6 -2 18 -2 25 0 6 3 1 5 -13 5 -14 0 -19 -2 -12 -5z"/>
<path d="M3788 4593 c7 -3 16 -2 19 1 4 3 -2 6 -13 5 -11 0 -14 -3 -6 -6z"/>
<path d="M3568 4583 c6 -2 18 -2 25 0 6 3 1 5 -13 5 -14 0 -19 -2 -12 -5z"/>
<path d="M3615 4570 l-50 -7 45 0 c25 -1 56 3 70 7 31 10 8 10 -65 0z"/>
<path d="M3538 4543 c6 -2 18 -2 25 0 6 3 1 5 -13 5 -14 0 -19 -2 -12 -5z"/>
<path d="M3341 4531 c-11 -7 -10 -10 5 -13 10 -2 -16 -10 -59 -17 -43 -8 -80
-18 -83 -23 -3 -5 5 -6 18 -3 12 3 64 14 113 24 51 11 76 19 58 20 -17 1 -33
5 -35 11 -2 5 -9 6 -17 1z"/>
<path d="M3483 4533 c9 -2 23 -2 30 0 6 3 -1 5 -18 5 -16 0 -22 -2 -12 -5z"/>
<path d="M3155 4520 c-30 -8 -30 -8 8 -9 20 0 37 4 37 9 0 11 -2 11 -45 0z"/>
<path d="M3090 4459 c-19 -10 -29 -19 -22 -19 28 0 102 23 102 31 0 15 -43 9
-80 -12z"/>
<path d="M4763 3146 c-20 -15 -61 -28 -110 -36 -109 -17 -339 -75 -418 -105
-123 -46 -222 -129 -273 -230 -30 -61 -52 -144 -51 -194 1 -41 2 -39 9 20 22
184 160 342 350 400 147 45 202 59 229 59 17 0 33 5 36 10 3 6 21 10 40 10 19
0 37 5 40 10 4 6 12 10 18 8 43 -7 166 40 167 65 0 9 1 9 -37 -17z"/>
<path d="M2990 777 c19 -6 41 -16 49 -21 9 -6 12 -5 7 2 -3 5 0 13 6 15 7 3 0
6 -17 6 -16 1 -41 3 -55 6 -14 3 -9 -1 10 -8z"/>
<path d="M2815 770 c3 -5 14 -10 23 -10 15 0 15 2 2 10 -20 13 -33 13 -25 0z"/>
<path d="M2868 773 c7 -3 16 -2 19 1 4 3 -2 6 -13 5 -11 0 -14 -3 -6 -6z"/>
<path d="M3075 760 c3 -5 13 -10 21 -10 8 0 12 5 9 10 -3 6 -13 10 -21 10 -8
0 -12 -4 -9 -10z"/>
<path d="M3200 739 c0 -5 5 -7 10 -4 6 3 10 8 10 11 0 2 -4 4 -10 4 -5 0 -10
-5 -10 -11z"/>
<path d="M3448 713 c7 -3 16 -2 19 1 4 3 -2 6 -13 5 -11 0 -14 -3 -6 -6z"/>
<path d="M2857 589 c7 -7 15 -10 18 -7 3 3 -2 9 -12 12 -14 6 -15 5 -6 -5z"/>
<path d="M3048 513 c6 -2 18 -2 25 0 6 3 1 5 -13 5 -14 0 -19 -2 -12 -5z"/>
</g>
</svg>
